<svg width="27" height="33" viewBox="0 0 27 33" fill="none" xmlns="http://www.w3.org/2000/svg">
<path d="M2 31V27.7778C2 26.0686 2.6802 24.4294 3.89096 23.2209C5.10172 22.0123 6.74387 21.3333 8.45614 21.3333H14.1053M19.8553 31V21.6354M15.0132 26.1667H19.8553H25M5.22807 8.44444C5.22807 10.1536 5.90827 11.7928 7.11903 13.0014C8.32979 14.2099 9.97193 14.8889 11.6842 14.8889C13.3965 14.8889 15.0386 14.2099 16.2494 13.0014C17.4602 11.7928 18.1404 10.1536 18.1404 8.44444C18.1404 6.73527 17.4602 5.0961 16.2494 3.88753C15.0386 2.67897 13.3965 2 11.6842 2C9.97193 2 8.32979 2.67897 7.11903 3.88753C5.90827 5.0961 5.22807 6.73527 5.22807 8.44444Z" stroke="#006C5B" stroke-width="3" stroke-linecap="round" stroke-linejoin="round"/>
</svg>
