<svg width="32" height="30" viewBox="0 0 32 30" fill="none" xmlns="http://www.w3.org/2000/svg">
<path d="M24.8889 29.9982C24.3852 29.9982 23.9633 29.8286 23.6231 29.4893C23.283 29.15 23.1123 28.7311 23.1111 28.2328V24.6984H19.5556C19.0519 24.6984 18.6299 24.5287 18.2898 24.1894C17.9496 23.8501 17.779 23.4307 17.7778 22.9312C17.7766 22.4317 17.9473 22.0122 18.2898 21.6729C18.6323 21.3336 19.0542 21.164 19.5556 21.164H23.1111V17.6296C23.1111 17.1289 23.2818 16.7095 23.6231 16.3713C23.9644 16.0332 24.3864 15.8636 24.8889 15.8624C25.3914 15.8612 25.8139 16.0309 26.1564 16.3713C26.499 16.7118 26.669 17.1312 26.6667 17.6296V21.164H30.2222C30.7259 21.164 31.1484 21.3336 31.4898 21.6729C31.8311 22.0122 32.0012 22.4317 32 22.9312C31.9988 23.4307 31.8281 23.8507 31.488 24.1912C31.1478 24.5317 30.7259 24.7007 30.2222 24.6984H26.6667V28.2328C26.6667 28.7335 26.496 29.1535 26.1547 29.4928C25.8133 29.8321 25.3914 29.9994 24.8889 29.9982ZM8.88889 24.7408C8.38519 24.7408 7.96326 24.5712 7.62311 24.2319C7.28297 23.8925 7.1123 23.4731 7.11111 22.9736C7.10993 22.4741 7.2806 22.0547 7.62311 21.7154C7.96563 21.3761 8.38756 21.2064 8.88889 21.2064H13.3333C13.837 21.2064 14.2596 21.3761 14.6009 21.7154C14.9422 22.0547 15.1123 22.4741 15.1111 22.9736C15.1099 23.4731 14.9393 23.8931 14.5991 24.2336C14.259 24.5741 13.837 24.7432 13.3333 24.7408H8.88889ZM8.88889 17.672C8.38519 17.672 7.96326 17.5024 7.62311 17.163C7.28297 16.8237 7.1123 16.4043 7.11111 15.9048C7.10993 15.4053 7.2806 14.9859 7.62311 14.6466C7.96563 14.3073 8.38756 14.1376 8.88889 14.1376H13.3333C13.837 14.1376 14.2596 14.3073 14.6009 14.6466C14.9422 14.9859 15.1123 15.4053 15.1111 15.9048C15.1099 16.4043 14.9393 16.8243 14.5991 17.1648C14.259 17.5053 13.837 17.6744 13.3333 17.672H8.88889ZM8.88889 10.6032C8.38519 10.6032 7.96326 10.4335 7.62311 10.0942C7.28297 9.75495 7.1123 9.33553 7.11111 8.836C7.10993 8.33647 7.2806 7.91706 7.62311 7.57776C7.96563 7.23845 8.38756 7.0688 8.88889 7.0688H26.6667C27.1704 7.0688 27.5929 7.23845 27.9342 7.57776C28.2756 7.91706 28.4456 8.33647 28.4444 8.836C28.4433 9.33553 28.2726 9.75554 27.9324 10.096C27.5923 10.4365 27.1704 10.6056 26.6667 10.6032H8.88889ZM8.88889 3.5344C8.38519 3.5344 7.96326 3.36475 7.62311 3.02545C7.28297 2.68614 7.1123 2.26673 7.11111 1.7672C7.10993 1.26767 7.2806 0.848256 7.62311 0.508954C7.96563 0.169651 8.38756 0 8.88889 0H26.6667C27.1704 0 27.5929 0.169651 27.9342 0.508954C28.2756 0.848256 28.4456 1.26767 28.4444 1.7672C28.4433 2.26673 28.2726 2.68673 27.9324 3.02721C27.5923 3.36769 27.1704 3.53676 26.6667 3.5344H8.88889ZM1.77778 3.5344C1.27408 3.5344 0.852154 3.36475 0.512006 3.02545C0.171858 2.68614 0.00119132 2.26673 6.13026e-06 1.7672C-0.00117905 1.26767 0.169488 0.848256 0.512006 0.508954C0.854524 0.169651 1.27645 0 1.77778 0C2.27912 0 2.70163 0.169651 3.04534 0.508954C3.38904 0.848256 3.55912 1.26767 3.55556 1.7672C3.552 2.26673 3.38134 2.68673 3.04356 3.02721C2.70578 3.36769 2.28386 3.53676 1.77778 3.5344ZM1.77778 10.6032C1.27408 10.6032 0.852154 10.4335 0.512006 10.0942C0.171858 9.75495 0.00119132 9.33553 6.13026e-06 8.836C-0.00117905 8.33647 0.169488 7.91706 0.512006 7.57776C0.854524 7.23845 1.27645 7.0688 1.77778 7.0688C2.27912 7.0688 2.70163 7.23845 3.04534 7.57776C3.38904 7.91706 3.55912 8.33647 3.55556 8.836C3.552 9.33553 3.38134 9.75554 3.04356 10.096C2.70578 10.4365 2.28386 10.6056 1.77778 10.6032ZM1.77778 17.672C1.27408 17.672 0.852154 17.5024 0.512006 17.163C0.171858 16.8237 0.00119132 16.4043 6.13026e-06 15.9048C-0.00117905 15.4053 0.169488 14.9859 0.512006 14.6466C0.854524 14.3073 1.27645 14.1376 1.77778 14.1376C2.27912 14.1376 2.70163 14.3073 3.04534 14.6466C3.38904 14.9859 3.55912 15.4053 3.55556 15.9048C3.552 16.4043 3.38134 16.8243 3.04356 17.1648C2.70578 17.5053 2.28386 17.6744 1.77778 17.672ZM1.77778 24.7408C1.27408 24.7408 0.852154 24.5712 0.512006 24.2319C0.171858 23.8925 0.00119132 23.4731 6.13026e-06 22.9736C-0.00117905 22.4741 0.169488 22.0547 0.512006 21.7154C0.854524 21.3761 1.27645 21.2064 1.77778 21.2064C2.27912 21.2064 2.70163 21.3761 3.04534 21.7154C3.38904 22.0547 3.55912 22.4741 3.55556 22.9736C3.552 23.4731 3.38134 23.8931 3.04356 24.2336C2.70578 24.5741 2.28386 24.7432 1.77778 24.7408Z" fill="#006C5B"/>
</svg>
