<svg width="35" height="31" viewBox="0 0 35 31" fill="none" xmlns="http://www.w3.org/2000/svg">
<path d="M18.214 0.254528C18.007 0.0895795 17.752 0 17.4895 0C17.227 0 16.972 0.0895795 16.765 0.254528L0 13.6146L1.45017 15.489L3.5 13.8555V28.6153C3.50123 29.2474 3.74746 29.8532 4.18478 30.3002C4.6221 30.7471 5.21487 30.9987 5.83333 31H29.1667C29.7851 30.9987 30.3779 30.7471 30.8152 30.3002C31.2525 29.8532 31.4988 29.2474 31.5 28.6153V13.8662L33.5498 15.4997L35 13.6253L18.214 0.254528ZM19.8333 28.6153H15.1667V19.0767H19.8333V28.6153ZM22.1667 28.6153V19.0767C22.1667 18.4442 21.9208 17.8377 21.4832 17.3905C21.0457 16.9433 20.4522 16.692 19.8333 16.692H15.1667C14.5478 16.692 13.9543 16.9433 13.5168 17.3905C13.0792 17.8377 12.8333 18.4442 12.8333 19.0767V28.6153H5.83333V11.9966L17.5 2.70835L29.1667 12.0085V28.6153H22.1667Z" fill="#006C5B"/>
</svg>
